<?xml version="1.0" encoding="utf-8"?>
<!-- Generator: Adobe Illustrator 15.1.0, SVG Export Plug-In . SVG Version: 6.00 Build 0)  -->
<!DOCTYPE svg PUBLIC "-//W3C//DTD SVG 1.1//EN" "http://www.w3.org/Graphics/SVG/1.1/DTD/svg11.dtd">
<svg version="1.1" id="Calque_1" xmlns="http://www.w3.org/2000/svg" xmlns:xlink="http://www.w3.org/1999/xlink" x="0px" y="0px"
	 width="116.042px" height="189.333px" viewBox="0 0 116.042 189.333" enable-background="new 0 0 116.042 189.333"
	 xml:space="preserve">
<g>
	<polygon fill="#FFFFFF" points="32.041,188 84.041,178 84.041,136 32.041,136 	"/>
	<path fill="#FFFFFF" d="M84.041,0h-52v52h52V0z M70.041,38h-24V14h24V38z"/>
	<rect x="104.041" y="46" fill="#FFFFFF" width="12" height="12"/>
	<rect x="0.041" y="46" fill="#FFFFFF" width="12" height="12"/>
	<polygon fill="#FFFFFF" points="74.041,56 70.052,56 42.041,56 32.041,56 18.041,56 18.041,80 32.041,80 32.041,108 32.041,132 
		56.041,132 56.041,108 60.041,108 60.041,108.021 60.041,132 84.041,132 84.041,108 84.041,80 98.041,80 98.041,56 84.041,56 	"/>
</g>
</svg>
